<mxfile host="app.diagrams.net" modified="2024-03-25T18:02:32.278Z" agent="Mozilla/5.0 (Windows NT 10.0; Win64; x64) AppleWebKit/537.36 (KHTML, like Gecko) Chrome/122.0.0.0 Safari/537.36" etag="SswyJWuCCDWB6up6o2mj" version="24.0.6" type="github">
  <diagram name="Страница — 1" id="Ydq7MF8qb2l_esp0gRKq">
    <mxGraphModel dx="1420" dy="775" grid="1" gridSize="10" guides="1" tooltips="1" connect="1" arrows="1" fold="1" page="1" pageScale="1" pageWidth="827" pageHeight="1169" math="0" shadow="0">
      <root>
        <mxCell id="0" />
        <mxCell id="1" parent="0" />
        <mxCell id="dVkk-NogbNR_9V1fUAFf-1" value="a: Студент" style="shape=umlActor;verticalLabelPosition=bottom;verticalAlign=top;html=1;outlineConnect=0;" parent="1" vertex="1">
          <mxGeometry x="130" y="200" width="30" height="60" as="geometry" />
        </mxCell>
        <mxCell id="dVkk-NogbNR_9V1fUAFf-15" value="" style="rounded=0;whiteSpace=wrap;html=1;" parent="1" vertex="1">
          <mxGeometry x="135" y="290" width="20" height="210" as="geometry" />
        </mxCell>
        <mxCell id="dVkk-NogbNR_9V1fUAFf-42" style="edgeStyle=orthogonalEdgeStyle;rounded=0;orthogonalLoop=1;jettySize=auto;html=1;dashed=1;endArrow=none;endFill=0;" parent="1" source="dVkk-NogbNR_9V1fUAFf-16" target="dVkk-NogbNR_9V1fUAFf-17" edge="1">
          <mxGeometry relative="1" as="geometry" />
        </mxCell>
        <mxCell id="dVkk-NogbNR_9V1fUAFf-16" value="b: Семинар курса" style="rounded=0;whiteSpace=wrap;html=1;" parent="1" vertex="1">
          <mxGeometry x="230" y="200" width="120" height="70" as="geometry" />
        </mxCell>
        <mxCell id="dVkk-NogbNR_9V1fUAFf-17" value="" style="rounded=0;whiteSpace=wrap;html=1;" parent="1" vertex="1">
          <mxGeometry x="280" y="290" width="20" height="60" as="geometry" />
        </mxCell>
        <mxCell id="dVkk-NogbNR_9V1fUAFf-20" value="" style="endArrow=classic;html=1;rounded=0;exitX=1.021;exitY=0.087;exitDx=0;exitDy=0;exitPerimeter=0;entryX=0;entryY=0.5;entryDx=0;entryDy=0;" parent="1" edge="1">
          <mxGeometry width="50" height="50" relative="1" as="geometry">
            <mxPoint x="155.42000000000007" y="301.32000000000016" as="sourcePoint" />
            <mxPoint x="280" y="300" as="targetPoint" />
          </mxGeometry>
        </mxCell>
        <mxCell id="dVkk-NogbNR_9V1fUAFf-22" value="запис&lt;span style=&quot;color: rgba(0, 0, 0, 0); font-family: monospace; font-size: 0px; text-align: start; text-wrap: nowrap;&quot;&gt;%3CmxGraphModel%3E%3Croot%3E%3CmxCell%20id%3D%220%22%2F%3E%3CmxCell%20id%3D%221%22%20parent%3D%220%22%2F%3E%3CmxCell%20id%3D%222%22%20value%3D%22%22%20style%3D%22rounded%3D0%3BwhiteSpace%3Dwrap%3Bhtml%3D1%3B%22%20vertex%3D%221%22%20parent%3D%221%22%3E%3CmxGeometry%20x%3D%22280%22%20y%3D%22290%22%20width%3D%2220%22%20height%3D%2260%22%20as%3D%22geometry%22%2F%3E%3C%2FmxCell%3E%3C%2Froot%3E%3C%2FmxGraphModel%3E&lt;/span&gt;ь&lt;div&gt;НаСеминар()&lt;/div&gt;" style="text;html=1;align=center;verticalAlign=middle;whiteSpace=wrap;rounded=0;" parent="1" vertex="1">
          <mxGeometry x="190" y="305" width="60" height="30" as="geometry" />
        </mxCell>
        <mxCell id="dVkk-NogbNR_9V1fUAFf-23" value="" style="endArrow=classic;html=1;rounded=0;exitX=1.021;exitY=0.087;exitDx=0;exitDy=0;exitPerimeter=0;entryX=0;entryY=0.25;entryDx=0;entryDy=0;" parent="1" target="dVkk-NogbNR_9V1fUAFf-24" edge="1">
          <mxGeometry width="50" height="50" relative="1" as="geometry">
            <mxPoint x="300.0000000000001" y="320.66000000000014" as="sourcePoint" />
            <mxPoint x="424.58000000000004" y="319.34" as="targetPoint" />
          </mxGeometry>
        </mxCell>
        <mxCell id="dVkk-NogbNR_9V1fUAFf-24" value="" style="rounded=0;whiteSpace=wrap;html=1;" parent="1" vertex="1">
          <mxGeometry x="480" y="305" width="20" height="60" as="geometry" />
        </mxCell>
        <mxCell id="dVkk-NogbNR_9V1fUAFf-25" value="проверка ПодготовленностиСтудента()" style="text;html=1;align=center;verticalAlign=middle;whiteSpace=wrap;rounded=0;" parent="1" vertex="1">
          <mxGeometry x="340" y="330" width="110" height="30" as="geometry" />
        </mxCell>
        <mxCell id="dVkk-NogbNR_9V1fUAFf-26" value="c: Учебный курс" style="rounded=0;whiteSpace=wrap;html=1;" parent="1" vertex="1">
          <mxGeometry x="440" y="200" width="100" height="70" as="geometry" />
        </mxCell>
        <mxCell id="dVkk-NogbNR_9V1fUAFf-27" value="" style="endArrow=classic;html=1;rounded=0;exitX=1.021;exitY=0.087;exitDx=0;exitDy=0;exitPerimeter=0;entryX=0;entryY=0.25;entryDx=0;entryDy=0;" parent="1" target="dVkk-NogbNR_9V1fUAFf-28" edge="1">
          <mxGeometry width="50" height="50" relative="1" as="geometry">
            <mxPoint x="500.0000000000001" y="345.66000000000014" as="sourcePoint" />
            <mxPoint x="624.58" y="344.34" as="targetPoint" />
          </mxGeometry>
        </mxCell>
        <mxCell id="dVkk-NogbNR_9V1fUAFf-28" value="" style="rounded=0;whiteSpace=wrap;html=1;" parent="1" vertex="1">
          <mxGeometry x="680" y="330" width="20" height="60" as="geometry" />
        </mxCell>
        <mxCell id="dVkk-NogbNR_9V1fUAFf-29" value="запросИсторииПройдённых&lt;div&gt;Семинаров(студент)&lt;/div&gt;" style="text;html=1;align=center;verticalAlign=middle;whiteSpace=wrap;rounded=0;" parent="1" vertex="1">
          <mxGeometry x="540" y="355" width="110" height="30" as="geometry" />
        </mxCell>
        <mxCell id="dVkk-NogbNR_9V1fUAFf-30" value=":История пройденных семинаров" style="rounded=0;whiteSpace=wrap;html=1;" parent="1" vertex="1">
          <mxGeometry x="640" y="200" width="100" height="70" as="geometry" />
        </mxCell>
        <mxCell id="dVkk-NogbNR_9V1fUAFf-31" value="d:Слушать" style="rounded=0;whiteSpace=wrap;html=1;" parent="1" vertex="1">
          <mxGeometry x="840" y="200" width="100" height="70" as="geometry" />
        </mxCell>
        <mxCell id="dVkk-NogbNR_9V1fUAFf-32" value="" style="rounded=0;whiteSpace=wrap;html=1;" parent="1" vertex="1">
          <mxGeometry x="880" y="350" width="20" height="130" as="geometry" />
        </mxCell>
        <mxCell id="dVkk-NogbNR_9V1fUAFf-33" value="" style="endArrow=classic;html=1;rounded=0;exitX=1.021;exitY=0.087;exitDx=0;exitDy=0;exitPerimeter=0;entryX=0;entryY=0.25;entryDx=0;entryDy=0;" parent="1" edge="1">
          <mxGeometry width="50" height="50" relative="1" as="geometry">
            <mxPoint x="700.0000000000001" y="365.66000000000014" as="sourcePoint" />
            <mxPoint x="880" y="365" as="targetPoint" />
          </mxGeometry>
        </mxCell>
        <mxCell id="dVkk-NogbNR_9V1fUAFf-34" value="передачаИстории()" style="text;html=1;align=center;verticalAlign=middle;whiteSpace=wrap;rounded=0;" parent="1" vertex="1">
          <mxGeometry x="740" y="375" width="110" height="30" as="geometry" />
        </mxCell>
        <mxCell id="dVkk-NogbNR_9V1fUAFf-35" value="" style="endArrow=classic;html=1;rounded=0;entryX=1;entryY=0.75;entryDx=0;entryDy=0;edgeStyle=orthogonalEdgeStyle;" parent="1" target="dVkk-NogbNR_9V1fUAFf-32" edge="1">
          <mxGeometry width="50" height="50" relative="1" as="geometry">
            <mxPoint x="900" y="390" as="sourcePoint" />
            <mxPoint x="1080" y="375" as="targetPoint" />
            <Array as="points">
              <mxPoint x="920" y="390" />
              <mxPoint x="920" y="448" />
              <mxPoint x="900" y="448" />
            </Array>
          </mxGeometry>
        </mxCell>
        <mxCell id="dVkk-NogbNR_9V1fUAFf-36" value="определениеСтатуса&lt;div&gt;Подготовленности()&lt;/div&gt;" style="text;html=1;align=center;verticalAlign=middle;whiteSpace=wrap;rounded=0;" parent="1" vertex="1">
          <mxGeometry x="910" y="355" width="110" height="30" as="geometry" />
        </mxCell>
        <mxCell id="dVkk-NogbNR_9V1fUAFf-38" value="" style="endArrow=open;endSize=12;dashed=1;html=1;rounded=0;exitX=0;exitY=0.75;exitDx=0;exitDy=0;entryX=1;entryY=0.75;entryDx=0;entryDy=0;" parent="1" source="dVkk-NogbNR_9V1fUAFf-32" target="dVkk-NogbNR_9V1fUAFf-15" edge="1">
          <mxGeometry width="160" relative="1" as="geometry">
            <mxPoint x="540" y="510" as="sourcePoint" />
            <mxPoint x="160" y="450" as="targetPoint" />
          </mxGeometry>
        </mxCell>
        <mxCell id="dVkk-NogbNR_9V1fUAFf-39" value="сообщениеРезультата&lt;div&gt;Записи(статус)&lt;/div&gt;" style="text;html=1;align=center;verticalAlign=middle;whiteSpace=wrap;rounded=0;" parent="1" vertex="1">
          <mxGeometry x="365" y="450" width="60" height="30" as="geometry" />
        </mxCell>
        <mxCell id="dVkk-NogbNR_9V1fUAFf-43" style="edgeStyle=orthogonalEdgeStyle;rounded=0;orthogonalLoop=1;jettySize=auto;html=1;dashed=1;endArrow=none;endFill=0;exitX=0.5;exitY=1;exitDx=0;exitDy=0;" parent="1" source="dVkk-NogbNR_9V1fUAFf-17" edge="1">
          <mxGeometry relative="1" as="geometry">
            <mxPoint x="289.52" y="365" as="sourcePoint" />
            <mxPoint x="290" y="610" as="targetPoint" />
            <Array as="points">
              <mxPoint x="290" y="475" />
            </Array>
          </mxGeometry>
        </mxCell>
        <mxCell id="dVkk-NogbNR_9V1fUAFf-44" style="edgeStyle=orthogonalEdgeStyle;rounded=0;orthogonalLoop=1;jettySize=auto;html=1;dashed=1;endArrow=none;endFill=0;exitX=0.5;exitY=1;exitDx=0;exitDy=0;" parent="1" edge="1">
          <mxGeometry relative="1" as="geometry">
            <mxPoint x="489.52" y="365" as="sourcePoint" />
            <mxPoint x="489.52" y="615" as="targetPoint" />
            <Array as="points">
              <mxPoint x="489.52" y="490" />
            </Array>
          </mxGeometry>
        </mxCell>
        <mxCell id="dVkk-NogbNR_9V1fUAFf-45" style="edgeStyle=orthogonalEdgeStyle;rounded=0;orthogonalLoop=1;jettySize=auto;html=1;dashed=1;endArrow=none;endFill=0;exitX=0.5;exitY=1;exitDx=0;exitDy=0;" parent="1" edge="1">
          <mxGeometry relative="1" as="geometry">
            <mxPoint x="689.52" y="390" as="sourcePoint" />
            <mxPoint x="690" y="620" as="targetPoint" />
            <Array as="points">
              <mxPoint x="689.52" y="515" />
            </Array>
          </mxGeometry>
        </mxCell>
        <mxCell id="dVkk-NogbNR_9V1fUAFf-46" style="edgeStyle=orthogonalEdgeStyle;rounded=0;orthogonalLoop=1;jettySize=auto;html=1;dashed=1;endArrow=none;endFill=0;exitX=0.5;exitY=1;exitDx=0;exitDy=0;entryX=0.495;entryY=0.489;entryDx=0;entryDy=0;entryPerimeter=0;" parent="1" edge="1" target="hE04_kzime83C1SbN2uj-2">
          <mxGeometry relative="1" as="geometry">
            <mxPoint x="889.52" y="480" as="sourcePoint" />
            <mxPoint x="890" y="550" as="targetPoint" />
            <Array as="points" />
          </mxGeometry>
        </mxCell>
        <mxCell id="dVkk-NogbNR_9V1fUAFf-48" style="edgeStyle=orthogonalEdgeStyle;rounded=0;orthogonalLoop=1;jettySize=auto;html=1;dashed=1;endArrow=none;endFill=0;exitX=0.5;exitY=1;exitDx=0;exitDy=0;entryX=0.5;entryY=0;entryDx=0;entryDy=0;" parent="1" source="dVkk-NogbNR_9V1fUAFf-26" target="dVkk-NogbNR_9V1fUAFf-24" edge="1">
          <mxGeometry relative="1" as="geometry">
            <mxPoint x="420" y="270" as="sourcePoint" />
            <mxPoint x="300" y="300" as="targetPoint" />
            <Array as="points">
              <mxPoint x="490" y="290" />
              <mxPoint x="490" y="290" />
            </Array>
          </mxGeometry>
        </mxCell>
        <mxCell id="dVkk-NogbNR_9V1fUAFf-49" style="edgeStyle=orthogonalEdgeStyle;rounded=0;orthogonalLoop=1;jettySize=auto;html=1;dashed=1;endArrow=none;endFill=0;fontStyle=1" parent="1" edge="1">
          <mxGeometry relative="1" as="geometry">
            <mxPoint x="690" y="270" as="sourcePoint" />
            <mxPoint x="690" y="330" as="targetPoint" />
          </mxGeometry>
        </mxCell>
        <mxCell id="dVkk-NogbNR_9V1fUAFf-50" style="edgeStyle=orthogonalEdgeStyle;rounded=0;orthogonalLoop=1;jettySize=auto;html=1;dashed=1;endArrow=none;endFill=0;fontStyle=1;entryX=0.5;entryY=0;entryDx=0;entryDy=0;exitX=0.5;exitY=1;exitDx=0;exitDy=0;" parent="1" source="dVkk-NogbNR_9V1fUAFf-31" target="dVkk-NogbNR_9V1fUAFf-32" edge="1">
          <mxGeometry relative="1" as="geometry">
            <mxPoint x="700" y="280" as="sourcePoint" />
            <mxPoint x="700" y="340" as="targetPoint" />
          </mxGeometry>
        </mxCell>
        <mxCell id="hE04_kzime83C1SbN2uj-2" value="" style="shape=mxgraph.sysml.x;" vertex="1" parent="1">
          <mxGeometry x="870" y="580" width="40" height="40" as="geometry" />
        </mxCell>
      </root>
    </mxGraphModel>
  </diagram>
</mxfile>
